<?xml version="1.0" encoding="UTF-8"?>
<svg id="Layer_2" data-name="Layer 2" xmlns="http://www.w3.org/2000/svg" viewBox="0 0 104.31 141.34">
  <defs>
    <style>
      .cls-1 {
        fill:rgb(85, 112, 60);
      }
    </style>
  </defs>
  <g id="Layer_1-2" data-name="Layer 1">
    <path class="cls-1" d="M99.47,44.26L63.71,5.28c-3.12-3.4-7.27-5.28-11.69-5.28s-8.57,1.87-11.69,5.28L4.84,43.97c-3.12,3.4-4.84,7.93-4.84,12.74v66.61c0,9.94,7.41,18.02,16.53,18.02h71.25c9.11,0,16.53-8.08,16.53-18.02V57c0-4.81-1.72-9.34-4.84-12.74ZM18.65,126.28c-2.67,0-4.84-2.37-4.84-5.28v-63.34c0-1.41.5-2.74,1.42-3.73L50.7,15.26c.48-.52,1.03-.59,1.32-.59s.84.08,1.32.59l35.74,38.97c.91,1,1.42,2.32,1.42,3.73v63.04c0,2.91-2.17,5.28-4.84,5.28H18.65Z"/>
  </g>
</svg>