<?xml version="1.0" encoding="UTF-8"?>
<svg id="Layer_2" data-name="Layer 2" xmlns="http://www.w3.org/2000/svg" viewBox="0 0 104.28 135.69">
  <defs>
    <style>
      .cls-1 {
        fill:rgb(106, 69, 168);
      }
    </style>
  </defs>
  <g id="Layer_1-2" data-name="Layer 1">
    <path class="cls-1" d="M32.46,11.18c9.75-11.85,17.95,17.77,20.68,15.71C55.89,21.4,65.6.18,71.62,0c3.29-.1,6.22,2.18,6.52,5.49.66,7.41-15.99,26.44-17.85,34.65l43.09,74.01c4.39,13.22-8.35,16.1-18.2,18.26-20.69,4.55-49.58,4.48-70.04-1.02-9.8-2.64-18.46-5.54-13.89-17.9L43.98,41.13c.2-7.59-17-23.29-11.52-29.95ZM90.15,117.89L51.66,53.88,14.15,117.88c3.64.03,15.27,4.46,17.85,2.85,1.53-.96,13.31-28.51,16.31-32.18,1.34-2.69,3.96-3.66,6.41-1.72,4.25,3.39,15.69,32.71,17.59,33.9,3.05,1.9,13.89-2.86,17.84-2.84Z"/>
  </g>
</svg>