<?xml version="1.0" encoding="UTF-8"?>
<svg id="Layer_2" data-name="Layer 2" xmlns="http://www.w3.org/2000/svg" viewBox="0 0 104.31 143.62">
  <defs>
    <style>
      .cls-1 {
        fill:rgb(73, 67, 190);
      }
    </style>
  </defs>
  <g id="Layer_1-2" data-name="Layer 1">
    <path class="cls-1" d="M79.33,60.01h-16.99l-5.25-17.33c-.69-2.29-2.68-3.84-4.93-3.84s-4.24,1.55-4.93,3.84l-5.25,17.33h-16.99c-2.25,0-4.24,1.55-4.93,3.84-.69,2.29.07,4.8,1.88,6.22l13.75,10.71-5.25,17.33c-.69,2.29.07,4.8,1.88,6.22,1.82,1.42,4.28,1.42,6.1,0l13.75-10.71,13.75,10.71c.91.71,1.98,1.06,3.05,1.06s2.14-.35,3.05-1.06c1.82-1.42,2.58-3.93,1.88-6.22l-5.25-17.33,13.75-10.71c1.82-1.42,2.58-3.93,1.88-6.22-.69-2.29-2.68-3.84-4.93-3.84Z"/>
      <g><path class="cls-1" d="M84.22,0H20.09C9.01,0,0,9.67,0,21.55v100.53c0,11.88,9.01,21.55,20.09,21.55h64.12c11.08,0,20.09-9.67,20.09-21.55V21.55c0-11.88-9.01-21.55-20.09-21.55ZM90.32,122.07c0,3.61-2.74,6.55-6.11,6.55H20.09c-3.37,0-6.11-2.94-6.11-6.55V21.55c0-3.61,2.74-6.55,6.11-6.55h64.12c3.37,0,6.11,2.94,6.11,6.55v100.53Z"/> 
    </g>
  </g>
</svg>