<?xml version="1.0" encoding="UTF-8"?>
<svg preserveAspectRatio="xMidYMid slice" width="23px" height="30px" id="Layer_2" data-name="Layer 2" xmlns="http://www.w3.org/2000/svg" viewBox="0 0 112.51 143.34">
    <defs>
    <style>
      .cls-1 {
        fill:rgb(152, 202, 165);
      }
    </style>
  </defs>
  <g id="Layer_1-2" data-name="Layer 1">
    <path class="cls-1" d="M110.68,60.37c-2.32-2.14-6.01-1.92-8.26.29l-36.11,35.48c-1.04,1.02-2.82.3-2.82-1.15v-15.53c0-1.78.72-3.48,2-4.74l33.99-33.39c2.25-2.21,2.48-5.84.3-8.11s-6.03-2.4-8.34-.13l-25.12,24.68c-1.04,1.02-2.82.3-2.82-1.15v-12.56c0-1.78.72-3.48,2-4.74l22.94-22.54c2.09-2.05,2.45-5.36.64-7.65-2.19-2.77-6.27-2.96-8.72-.56l-14.03,13.79c-1.04,1.02-2.82.3-2.82-1.15V7.43c0-3.91-3.06-7.31-7.04-7.43s-7.48,3.12-7.48,7.13v14.34c0,1.45-1.78,2.17-2.82,1.15l-14.12-13.87c-2.25-2.21-5.94-2.43-8.26-.29s-2.44,5.92-.13,8.19l23.33,22.92c1.28,1.26,2,2.96,2,4.74v12.56c0,1.45-1.78,2.17-2.82,1.15l-25.37-24.93c-2.31-2.27-6.08-2.23-8.34.13s-1.95,5.9.3,8.11l34.24,33.64c1.28,1.26,2,2.96,2,4.74v15.28c0,1.45-1.78,2.17-2.82,1.15L9.86,60.49c-2.31-2.27-6.08-2.23-8.34.13s-1.95,5.91.3,8.12l45.15,44.36c1.28,1.26,2,2.96,2,4.74v18.07c0,3.91,3.06,7.31,7.04,7.43,4.11.12,7.48-3.12,7.48-7.13v-18.36c0-1.78.72-3.48,2-4.74l45.32-44.53c2.31-2.27,2.27-5.98-.13-8.19Z"/>
  </g>
</svg>