<?xml version="1.0" encoding="UTF-8"?>
<svg preserveAspectRatio="xMidYMid slice" width="30px" height="30px" id="Layer_2" data-name="Layer 2" xmlns="http://www.w3.org/2000/svg" viewBox="0 0 850.33 850.35">
  <defs>
    <style>
      .cls-1 {
        fill:rgb(245, 246, 255);
      }
    </style>
  </defs>
  <g id="Layer_1-2" data-name="Layer 1">
    <g>
      <path class="cls-1" d="M625.52,273.21h-44.1c-1.24-1.05-.76-2.39-.78-3.58-.06-4.21.04-8.43-.04-12.64-.22-13-10.74-23.12-23.95-23.09-13.23.03-23.8,10.19-23.81,23.16-.04,58.21-.04,116.42.01,174.63.01,13.11,10.43,23.25,23.64,23.28,13.55.03,23.97-10.02,24.11-23.34.08-7.18,0-14.36.03-21.54,0-1.53-.25-3.1.37-4.87h43.81c1.14.97.69,2.3.69,3.49.04,8.9.09,17.79,0,26.69-.25,27.29-13.26,46.66-37.56,58.15-28.82,13.63-63.72,4.44-82.08-20.81-1.78-2.44-2.31-4.51-1.28-7.65,2.31-7.05,1.54-14.16-1.45-20.99-.61-1.4-1.63-2.63-1.14-4.38,1.99-7.13-.49-13.32-4.73-18.76-2.27-2.91-3.1-5.73-3.09-9.34.1-52.59.13-105.19.03-157.78-.03-14.06,3.6-26.84,12.08-38.06,11.83-15.67,27.65-24.63,47.19-26.14,26.82-2.07,48.13,7.98,62.99,30.65,6.22,9.48,9.01,20.14,9.04,31.49.02,6.99,0,13.98,0,21.43Z"/>
      <path class="cls-1" d="M291,189.31v-72.25h41.25v72.07h43.94v44.28h-43.13c-1.07,1.92-.68,3.51-.68,5.04-.02,65.41.14,130.82-.2,196.23-.05,9.28,8.26,20.72,20.17,22.21,3.08.39,6.15.14,9.26-.16-.05.58.03.97-.12,1.13-8.15,8.45-7.75,18.29-4.22,28.37,1.1,3.15,1.56,5.83.09,8.89-1.19,2.48-.46,5.23-.55,8.07-4.36,1.21-8.67.06-12.84-.73-27.28-5.15-47.62-25.87-52.4-53.14-.68-3.86-.67-7.77-.67-11.67,0-66.03,0-132.07-.02-198.1,0-1.84.39-3.74-.61-5.99h-43.04v-44.24h43.77Z"/>
      <path class="cls-1" d="M439.26,385.39c-1.96.6-3.94.43-5.86.12-1.07-1.12-.73-2.43-.73-3.64-.02-69.41.01-138.81-.09-208.22,0-3.6,1.8-5.71,3.92-7.96,2.67,1.52,3.45,3.64,3.38,6.37-.12,4.52-.03,9.05-.03,13.57,0,64.73,0,129.45-.02,194.18,0,1.83.44,3.74-.57,5.57Z"/>
      <path class="cls-1" d="M437.02,755.46c-3.27-1.25-4.46-3.48-4.46-6.91.08-66.98.07-133.95.1-200.93,0-1.22-.3-2.49.53-3.86,1.81-.67,3.78-.5,5.75-.12,1.5,1.84.86,3.96.87,5.91.04,47.46.03,94.92.03,142.38,0,18.73,0,37.47-.01,56.2,0,2.77.31,5.72-2.81,7.32Z"/>
      <path class="cls-1" d="M426.57,743.67c-3.82-3.84-7.06-7.63-7.04-13.47.13-31.69.05-63.38.04-95.07,0-29.19,0-58.39.02-87.58,0-1.68-.41-3.43.58-5.16,2.16-.25,4.18.51,6.4,1.05v200.24Z"/>
      <path class="cls-1" d="M446,177.46c4.58,5.15,6.79,9.92,6.77,16.24-.23,62.44-.19,124.89-.24,187.33,0,1.68.33,3.42-.51,5.36-1.86.41-3.78.15-6.01-.27v-208.65Z"/>
      <path class="cls-1" d="M425.97,386.05c-2.03.61-3.82.83-5.61.47-1.14-1.47-.76-3.08-.76-4.6-.02-62.73.03-125.45-.08-188.18,0-5.48,2.6-9.28,6.46-13.68v205.99Z"/>
      <path class="cls-1" d="M458.83,200.21c4.05,5.09,6.84,10.21,6.81,16.95-.22,55.73-.12,111.45-.14,167.18,0,1.51.45,3.12-.62,4.64-.87-.13-1.78-.35-2.7-.37-2.64-.05-3.58-1.46-3.35-3.93.06-.62,0-1.25,0-1.87,0-59.63,0-119.26,0-178.88,0-1.24,0-2.47,0-3.71Z"/>
      <path class="cls-1" d="M478.68,393.44c-2.76-.07-4.33-1.51-6.48-1.91v-163.37c2.82,5.92,6.51,11.45,6.5,18.41-.06,47.6-.03,95.2-.03,142.8v4.08Z"/>
      <path class="cls-1" d="M407.3,539.71c2.25.4,4.28.35,6.09,1.92v132.22c-1.87,1.26-3.69.79-5.46.56-1.4-5.21-2-124.45-.63-134.69Z"/>
      <path class="cls-1" d="M387.43,269.23c0,1.23,0,2.39,0,3.56,0,39.77,0,79.53,0,119.3,0,6.13-.14,6.27-6.62,8.2-.66-1.63-.35-3.35-.35-5-.02-32.12.02-64.25-.05-96.37-.01-5.83.71-11.49,2.39-17.06,1.03-3.43,1.84-6.93,2.83-10.37.22-.77-.07-1.98,1.79-2.24Z"/>
      <path class="cls-1" d="M282.59,420.32c1.13,4.03,1.08,122.5-.05,126.2-3.9-5.92-6.61-11.73-6.53-19.09.32-31.49.27-62.98.01-94.46-.05-5.74,2.75-9.15,6.57-12.65Z"/>
      <path class="cls-1" d="M296.07,565.31c-4.41-3.87-6.93-8.04-6.85-14.12.33-27.11.14-54.23.13-81.34,0-1.4,0-2.8.38-4.33,2.41,5.12,6.48,9.28,6.43,15.68-.22,26.49-.09,52.98-.09,79.47,0,1.55,0,3.1,0,4.64Z"/>
      <path class="cls-1" d="M303.27,486.09c1.65,1.6,3.28,3.22,4.95,4.8,1.33,1.25,1,2.87,1,4.39.02,11.84.02,23.68.02,35.52,0,15.42,0,30.84-.02,46.27,0,1.63.25,3.32-.47,5.49-3.66-3.64-6.6-6.61-6.55-12.02.24-26.79.11-53.59.1-80.38,0-1.22,0-2.44,0-3.66.32-.13.64-.27.96-.4Z"/>
      <path class="cls-1" d="M563.25,584.61v-78.65c.79-.98,1.94-.91,3-1,1.07-.1,2.16-.39,3.28.04,1.11,1.33.6,2.95.61,4.45.05,20.87-.13,41.74.2,62.6.09,5.68-3.25,8.51-7.09,12.56Z"/>
      <path class="cls-1" d="M488.64,398.07c-2.94-.14-3.98-1.27-3.89-3.59.13-3.58.2-7.17.2-10.76.01-32.14.02-64.29,0-96.43,0-6.86-.09-13.72-.12-20.58,0-.74-.2-1.58.89-2.23,1.39,4.3,2.95,8.41,2.94,13.01-.05,39.16-.03,78.33-.02,117.49,0,.92,0,1.85,0,3.09Z"/>
      <path class="cls-1" d="M269.44,439.68c1.17,6.47,1.19,73.48.43,78.99-1.38.07-1.24-1.18-1.45-1.88-1.8-5.79-3.54-11.6-5.22-17.42-.29-1.02-.22-2.16-.22-3.24-.02-12.45-.23-24.91.07-37.36.16-6.91,3.2-13.1,6.39-19.08Z"/>
      <path class="cls-1" d="M577.07,566.96c-1.17-4.09-1.61-50.92-.58-62.93,1.58-1.69,3.88-1.39,5.82-2.18,1.29,1.59.8,3.2.8,4.68.03,15.89.03,31.78.02,47.67,0,6.2-.93,8.13-6.06,12.75Z"/>
      <path class="cls-1" d="M315.75,587.58v-90.61c2.03,1.15,3.62,2.06,5.21,2.95,1.54.87,1.27,2.36,1.27,3.74.01,5.15,0,10.3,0,15.45,0,2.81-.06,5.62.01,8.43.33,12.33-.1,24.5-3.52,36.56-2.15,7.6-2.5,15.66-2.98,23.49Z"/>
      <path class="cls-1" d="M408.39,433.08c3.65-2.86,6.34-6.25,8.68-9.91,1.6-.42,3.12-.3,5.08.11.22,11.84.94,23.73-2.83,35.3-.94,2.89-3.44,4.75-4.9,7.66-1.96-3.35-3.15-6.72-5.37-9.53,4.11-7.98,1.26-15.59-.66-23.63Z"/>
      <path class="cls-1" d="M550.4,505.02c2.31-.29,4.27-.04,6.47.62v66.97c-1.35-3.11-1.38-6.39-2.07-9.5-1.12-5.02-2.13-10.06-4.13-14.83-.55-1.32-.69-2.7-.69-4.12,0-12.47,0-24.95.01-37.42,0-.44.2-.88.4-1.72Z"/>
      <path class="cls-1" d="M550.19,398.66c2.42-.18,4.47.36,6.65,1.38v48.86c-2.54.68-4.56.15-6.65-1.06v-49.18Z"/>
      <path class="cls-1" d="M400.37,623.37v49.34c-1.61,1.26-2.99.52-4.33.37-1.85-.21-2.63-1.3-2.56-3.2.1-2.95.05-5.92.04-8.87-.02-8.87.3-17.77-.2-26.61-.3-5.4,2.14-8.34,7.05-11.02Z"/>
      <path class="cls-1" d="M589.42,499.42c1.78-1.39,3.87-2.29,5.92-3.04,1.31.92.93,2.1.94,3.11.03,11.67,0,23.34.05,35,0,2.08-.32,3.98-1.39,5.8-1.64,2.78-3.19,5.62-4.94,8.73-1.06-3.74-1.39-40.95-.57-49.6Z"/>
      <path class="cls-1" d="M563.11,448.15v-45.55c1.93-.6,3.29.69,4.82,1.22,1.5.51,2.13,1.57,2.12,3.2-.04,11.66.06,23.32-.07,34.98-.04,3.9-3.47,4.56-6.88,6.15Z"/>
      <path class="cls-1" d="M471.93,621.47c5.02,3.45,7.21,6.99,6.97,12.53-.47,11.21-.18,22.45-.24,33.67,0,1.54.25,3.11-.35,4.89-1.64,1.04-3.64.88-6.19,1.09-.47-17.28-.24-34.33-.2-52.19Z"/>
      <path class="cls-1" d="M344.17,446.96c-1.74-.71-2.66-1.93-2.65-3.86.07-15.25.12-30.49.2-45.74,0-.27.27-.53.54-1.04,1.87-.4,3.79-.08,5.63.64.9,1.34.57,2.78.57,4.15.02,10.11.01,20.23,0,30.34,0,4.77-1.56,10.39-4.3,15.5Z"/>
      <path class="cls-1" d="M399.75,581.53c-3.32-6.38-7.15-12.4-6.37-20.36.68-6.95.11-14.03.16-21.05.01-1.52-.44-3.12.47-4.56,1.52-.65,2.71.39,4,.77,1.9.56,2.69,1.88,2.69,3.86-.03,13.71-.01,27.41-.01,41.12-.31.07-.63.14-.94.21Z"/>
      <path class="cls-1" d="M380.77,632.6c2.26-.84,4.17-1.3,6.51-1.45v39.34c-2.41,0-4.26-1.16-6.56-2.14-.45-11.93-.51-23.84.05-35.75Z"/>
      <path class="cls-1" d="M472.15,584.92v-46.75c1.53-1.46,3.64-1.87,5.74-2.43,1.2,1.04.77,2.36.78,3.51.04,9.83,0,19.66.05,29.49.01,1.92-.3,3.68-1.11,5.43-1.67,3.62-3.22,7.28-4.83,10.93-.21-.06-.42-.12-.63-.19Z"/>
      <path class="cls-1" d="M364.1,467.22c5.37,7.16,10.67,14.16,13.33,22.75.36,1.18.63,2.43.67,3.65.08,2.6-1.84,3.99-4.31,3.06-1.13-.43-2.29-1.11-3.11-1.98-6.53-7-9.26-15.27-8.03-24.79.08-.6.37-1.19.61-1.76.1-.23.35-.4.84-.93Z"/>
      <path class="cls-1" d="M485.25,631.19c2.37-.34,4.1.41,6.2,1.1v36.43c-1.61,1.32-3.69,1.79-6.2,2.21v-39.74Z"/>
      <path class="cls-1" d="M538.6,397.26c1.97-.49,3.33-.58,4.97.34v45.87c-3.17-2.39-4.8-5.47-4.87-8.74-.26-12.42-.1-24.84-.1-37.48Z"/>
      <path class="cls-1" d="M523.91,529.38v-32.7c2.71.12,4.62,1.68,6.82,2.88v29.43c-2.13,1.06-4.22.71-6.82.38Z"/>
      <path class="cls-1" d="M543.65,535.87c-2.13-1.61-3.46-2.67-4.85-3.64-1.26-.89-1.84-2.1-1.85-3.58-.02-8.7,0-17.4,0-26.31,2.65-.14,4.63.49,6.7,1.57v31.96Z"/>
      <path class="cls-1" d="M367.96,632.82c2.21-.84,3.88-.72,6.25-.23.52,10.5.29,21.14.21,31.84-5.24-.94-6.3-2.06-6.68-6.73-.67-8.26.07-16.49.22-24.89Z"/>
      <path class="cls-1" d="M403.17,108.23c8.06,8.04,9.31,17.52,7.56,28.52-4.37-4.32-8.18-8.29-10.51-13.39-1.21-2.65-.82-5.51-.13-8.22.57-2.22,1.2-4.49,3.07-6.91Z"/>
      <path class="cls-1" d="M447.35,758.83c1.93,1.26,3,3.16,4.44,4.67,1.18,1.24,2.29,2.53,3.46,3.78,5.39,5.75,5.6,6.72,2.4,13.83-.82,1.82-1.51,3.75-2.87,5.3-6.08-5.59-9.52-18.12-7.43-27.58Z"/>
      <path class="cls-1" d="M498.6,633.03c1.69-.95,3.51-1.02,5.35-.7,1.17,1.21.77,2.68.78,4.03.03,7,0,14.01-.01,21.01q0,5.64-5.75,7.88c-1.12-3.5-1.38-26.32-.37-32.22Z"/>
      <path class="cls-1" d="M478.6,490.95c2.7-10.17,3.15-20.68,6.45-30.8,5.65,5.19,6.78,10.87,4.07,17.57-2.21,5.46-5.23,10.17-10.51,13.24Z"/>
      <path class="cls-1" d="M393.87,497.66c-2.63,5.44-5.63,9.82-10.54,12.6-4.08,2.31-8.09,1.7-11.95-.63-2.85-1.72-5.28-3.83-6.57-7.08,1.26-.79,2.03.32,2.96.6,4.79,1.41,9.35,1.66,13.9-1.19,3.5-2.2,7.31-4.01,12.21-4.3Z"/>
      <path class="cls-1" d="M495.08,433.6c-9.32-3.18-20.66-8.92-25.07-12.61,12.57-7.9,23.19,1.74,25.07,12.61Z"/>
      <path class="cls-1" d="M328.9,504.17c.9.17,1.53.22,2.1.42,1.31.45,2.59.97,4.25,1.6,0,7.95,0,15.87,0,23.79,0,1.18-.44,2.11-1.3,2.87-1.48,1.32-2.96,2.63-4.58,4.07-1-3.8-1.26-24.21-.48-32.75Z"/>
      <path class="cls-1" d="M379.71,473.32c-4.28-6.87-7.64-13.29-8.7-20.65-.62-4.31.69-7.49,3.86-10.21,5.38,10.81,7.3,22.1,4.84,30.86Z"/>
      <path class="cls-1" d="M395.35,475.08c12.28,3.83,21.27,8.19,26.05,12.57-10.7,5.29-23.23-.55-26.05-12.57Z"/>
      <path class="cls-1" d="M386.7,558.5c-1.63-2.04-3.33-4.03-4.86-6.14-.62-.85-1.23-1.96-1.25-2.96-.11-6.78-.06-13.57-.06-20.44,6.29,1.37,7.11,2.32,7.13,7.93.01,7.1,0,14.2,0,21.3-.32.1-.64.2-.96.3Z"/>
      <path class="cls-1" d="M397.09,369.22c10.61,7.85,15.92,20.41,12.2,29.25-5.31-9.36-13.31-16.97-12.2-29.25Z"/>
      <path class="cls-1" d="M461.39,630.67c-10.12-9.8-14.76-19.41-12.95-26.8,8.23,3.89,15.44,18.8,12.95,26.8Z"/>
      <path class="cls-1" d="M461.35,656.96c-8.77-9.23-16.33-21.2-12.69-27.14,7.93,5.27,15.99,19.74,12.69,27.14Z"/>
      <path class="cls-1" d="M448.68,577.3c9.93,8.32,14.86,18.78,12.93,27.02-9.02-6.93-15.21-19.59-12.93-27.02Z"/>
      <path class="cls-1" d="M448.99,681.54c7.75,8.51,14.46,16.39,12.42,29.24-7.3-8.58-14.61-16.14-12.42-29.24Z"/>
      <path class="cls-1" d="M387.37,446.9c-1.03-7.92-1.9-15,.52-21.99,1.48-4.29,3.15-5.96,6.88-7.39,1.3,10.69-1.79,23.65-7.4,29.39Z"/>
      <path class="cls-1" d="M461.76,683.33c-10.61-9.83-15.69-20.68-12.95-27.91,7.64,7.79,14.33,15.67,12.95,27.91Z"/>
      <path class="cls-1" d="M497.75,462.64c-6.06-8.85-13.6-15.63-15.53-26.44,5.03,2.45,8.97,5.43,12.76,8.6,2.13,1.78,2.7,4.51,3.11,7.1.51,3.2.69,6.46-.34,10.74Z"/>
      <path class="cls-1" d="M410.46,239.29c-6.62-7.94-15.02-15.02-13.28-28.07,8.07,8.42,14.72,16.3,13.28,28.07Z"/>
      <path class="cls-1" d="M397.49,185.46c7.81,8.14,14.45,15.96,13.49,27.75-8.32-5.11-15.24-18.92-13.49-27.75Z"/>
      <path class="cls-1" d="M397.58,342.6c7.61,8.27,14.44,15.96,13.4,27.81-8.79-5.85-15.36-19.07-13.4-27.81Z"/>
      <path class="cls-1" d="M414.37,498.19c8.25-2.21,15.6-5.14,23.51-6.08,1.92-.23,3.36-.19,4.12,1.82-6.74,9.56-14.95,11.97-27.63,4.27Z"/>
      <path class="cls-1" d="M410.33,265.43c-6.51-7.88-14.71-14.91-13.37-26.93,8.15,4.16,14.84,17.27,13.37,26.93Z"/>
      <path class="cls-1" d="M397.55,133.27c7.64,7.92,14.43,15.72,13.4,27.82-9.19-6.66-15.39-19.37-13.4-27.82Z"/>
      <path class="cls-1" d="M410.36,317.73c-6.5-7.88-14.7-14.9-13.42-26.9,8.14,4.1,14.76,16.97,13.42,26.9Z"/>
      <path class="cls-1" d="M397.51,263.85c7.75,8.13,14.44,15.91,13.47,27.71-8.49-5.31-15.28-18.87-13.47-27.71Z"/>
      <path class="cls-1" d="M410.94,344.52c-10.85-10.38-15.22-19.51-13.48-28.35,7.72,7.95,14.44,15.75,13.48,28.35Z"/>
      <path class="cls-1" d="M461.25,736.17c-6.63-8.92-14.72-16.06-13.52-27.92,7.66,2.63,15.01,17.22,13.52,27.92Z"/>
      <path class="cls-1" d="M397.49,159.35c7.8,8.12,14.49,15.91,13.47,27.74-8.54-5.42-15.26-18.92-13.47-27.74Z"/>
      <path class="cls-1" d="M461.06,761.55c-10.77-11.01-14.73-19.51-12.84-27.18,8.47,5.15,14.57,17.76,12.84,27.18Z"/>
      <path class="cls-1" d="M402.8,427.69c-.32-13.57,4.44-22.41,16.59-24.04-6.82,12.69-10.65,21.16-16.59,24.04Z"/>
      <path class="cls-1" d="M446.52,500.38c9.74,4.9,16.26,16.8,14.59,26.89-6.87-8.13-14.68-15.06-14.59-26.89Z"/>
      <path class="cls-1" d="M460.29,577.7c-6.25-8.21-13.42-15.14-12.41-26.29,8.91,4.17,15.11,17.07,12.41,26.29Z"/>
      <path class="cls-1" d="M448.41,526.19c7.71,7.17,14.54,14.77,13.37,26.69-8.6-6.14-14.93-18.31-13.37-26.69Z"/>
      <path class="cls-1" d="M602.15,521.57c0-9.17.01-18.35-.01-27.52,0-1.34.35-2.43,1.46-3.24,1.48-1.09,2.93-2.22,4.84-3.66,1.24,12.36.64,23.86-6.29,34.43Z"/>
      <path class="cls-1" d="M448.76,402.99c-7.63,6.19-15.64,11.21-25.63,12.46,3.11-10.02,17.55-17.13,25.63-12.46Z"/>
      <path class="cls-1" d="M485.1,559.68v-27.2c1.97-1.2,3.78-2.6,6.62-3.06,0,7.52,0,14.78,0,22.04,0,1.72-1.33,2.76-2.23,3.99-1.16,1.58-2.44,3.08-3.68,4.62-.24-.13-.47-.26-.71-.39Z"/>
      <path class="cls-1" d="M476.66,409.46c-10.46,2.63-19.46,8.98-30.42,6.12,6.47-4.56,13.24-8.35,21.24-9.18,3.1-.32,6.14.11,9.18,3.06Z"/>
      <path class="cls-1" d="M354.75,397.48c2.49.21,4.38.04,6.47,1.39.44,5.58.51,11.47-.03,17.27-.3,3.2-3.44,5.23-6.11,8.33-.96-9.47-1-18.02-.33-26.99Z"/>
      <path class="cls-1" d="M361.41,655.97c-4.93-3.34-7.78-6.4-7.18-11.92.48-4.42.1-8.93.1-13.06,2.13-1.26,3.57-.33,5.03,0,1.41.31,2.05,1.24,2.05,2.68-.01,7.1,0,14.2,0,22.3Z"/>
      <path class="cls-1" d="M458.81,499.85c-6.8-6.39-13.72-11.47-16.65-19.95,3.25-2.1,5.65-2.1,8.44.03,2.15,1.64,3.55,3.86,4.68,6.28,1.88,4.04,3.25,8.2,3.54,13.65Z"/>
      <path class="cls-1" d="M511.09,534.76c0-6.88.03-13.1-.02-19.32-.02-1.87.72-3.28,2-4.54,1.39-1.36,2.34-3.18,4.53-4.51v24.81c-1.69,1.28-3.71,2.34-6.51,3.56Z"/>
      <path class="cls-1" d="M390,454.88c1.37-1.29,2.6-2.44,4.21-3.96,6.21,5.67,11.69,11.66,13.66,20.37-7.2-1.95-14.89-8.97-17.87-16.42Z"/>
      <path class="cls-1" d="M511.44,631.71c1.96-.91,3.83-.8,5.49-1.1,1.35.8.99,1.99,1,3,.05,4.03-.37,8.11.12,12.08.66,5.38-2.32,8.2-6.61,11.24v-25.23Z"/>
      <path class="cls-1" d="M354.67,509.56c4.56-.31,6.48.67,6.6,3.85.26,6.62.08,13.27.08,19.94-2.16.17-3.41-.91-4.83-1.44-1.35-.51-1.87-1.5-1.86-2.9.02-6.37,0-12.74,0-19.44Z"/>
      <path class="cls-1" d="M455.4,473.28c-8.68-4.54-15.93-2.02-23,1.85-1.4-7.05,1.57-10.94,8.17-10.95,6.24-.01,11.08,2.53,14.83,9.11Z"/>
      <path class="cls-1" d="M348.15,528.64c-2.08.82-3.9.59-6.33.18-.43-6.79-.24-13.67-.34-20.82,2.51.18,4.48.16,6.67,1v19.64Z"/>
      <path class="cls-1" d="M367.82,519.42c4.58,2.19,7.2,4.5,6.72,9.47-.44,4.61-.09,9.31-.09,14.04-4.59-1.43-6.57-3.76-6.61-7.81-.06-5.06-.01-10.12-.01-15.7Z"/>
      <path class="cls-1" d="M504.78,520.18c0,6.31,0,11.87,0,17.43,0,1.33-.53,2.4-1.55,3.24-1.42,1.16-2.85,2.33-4.25,3.47-1.46-.75-.9-1.97-.92-2.94-.06-3.88.32-7.8-.1-11.64-.53-4.91,1.9-7.41,6.81-9.57Z"/>
      <path class="cls-1" d="M374.37,383.13c-3.46-16.9-2.93-33.64,0-50.36v50.36Z"/>
      <path class="cls-1" d="M395.88,490.35c-4.34-.18-7.27.93-10.2,1.4-.3-.39-.62-.61-.63-.86-.23-2.94-2.76-5.61-1.93-8.4.8-2.69,2.92-5,4.32-8.82,1.01,6.83,3.94,11.62,8.44,16.69Z"/>
      <path class="cls-1" d="M409.37,504.16c-2.94,3.6-6.6,6.09-11.59,8.17,1.49-5.73,3.82-10.45,6.06-15.71,1.97,2.69,3.72,5.07,5.53,7.54Z"/>
      <path class="cls-1" d="M380.36,422.55v-15.36c2.21-.9,4.36-.39,6.48-.42,1.75,2.46,1.57,4.45-.36,6.71-2.31,2.71-4.33,5.7-6.13,9.07Z"/>
      <path class="cls-1" d="M524.67,642.28c-1.33-3.92-.88-7.76-.82-11.58.02-1.17.58-2.14,1.82-2.37,1.61-.3,3.12-1.4,4.94-.76,1.93,6.5-2.97,10.2-5.93,14.71Z"/>
      <path class="cls-1" d="M395.11,394.94c3.17,3.39,5.36,6.34,6.71,9.77q-2.29,3.8-6.23,4.01c-1.84-4.2-2.08-8.48-.48-13.79Z"/>
      <path class="cls-1" d="M424.04,479.31c-4.54-.17-3.78-3.63-4.35-5.83-.66-2.55,2.92-7.24,6.76-9.45-1.5,5.12-2.34,10.07-2.41,15.28Z"/>
      <path class="cls-1" d="M342.04,627.39c2.4-.46,4.19.34,6.12,1.4.52,3.76.19,7.58.19,11.49-3.81-2.43-6.75-8.36-6.31-12.89Z"/>
      <path class="cls-1" d="M413.52,688.69v22.36c-2.31-4.08-2.54-14.98,0-22.36Z"/>
      <path class="cls-1" d="M463.27,486.67c2.46-1.74,4.69-2.54,7.21-2.86-.13,4.24-.93,5.8-4.85,9.64-1.28-2.05-1.27-4.45-2.35-6.79Z"/>
      <path class="cls-1" d="M367.94,409.48c.04-3.18-.36-5.93.28-8.53,1.08-.56,2-.41,2.87-.12,1.28.44,2.87.66,3.26,2.24.43,1.78-.79,2.87-2.09,3.78-1.22.86-2.2,2.12-4.31,2.63Z"/>
      <path class="cls-1" d="M403.38,448.7c-5.63-5.64-5.72-6.23-1.97-12.13,1.76,3.96,2.74,7.71,1.97,12.13Z"/>
    </g>
    <path class="cls-1" d="M850.3,420.68c2.46,236.76-188.06,427.51-421.05,429.64C193.63,852.48,1.05,662.74,0,427.13-1.05,190.22,191.43-1.47,427.88,0c232.25,1.46,420.16,189.07,422.43,420.68ZM424.84,838.87c227.45.26,411.73-183.29,414.04-409.33,2.35-229.71-182.74-416.99-411.65-418.09C197.67,10.34,10.61,196.41,11.47,426.74c.85,228.6,186.6,412.1,413.37,412.13Z"/>
  </g>
</svg>