<?xml version="1.0" encoding="UTF-8"?>
<svg preserveAspectRatio="xMidYMid slice" width="43px" height="60px" id="Layer_2" data-name="Layer 2" xmlns="http://www.w3.org/2000/svg" viewBox="0 0 104.31 143.62">
  <defs>
    <style>
      .cls-1 {
        fill:rgb(225, 103, 180);
      }
    </style>
  </defs>
  <g id="Layer_1-2" data-name="Layer 1">
    <path class="cls-1" d="M84.22,143.62H20.09c-11.08,0-20.09-9.67-20.09-21.55V21.55C0,9.67,9.01,0,20.09,0h64.12c11.08,0,20.09,9.67,20.09,21.55v100.53c0,11.88-9.01,21.55-20.09,21.55ZM20.09,15c-3.37,0-6.11,2.94-6.11,6.55v100.53c0,3.61,2.74,6.55,6.11,6.55h64.12c3.37,0,6.11-2.94,6.11-6.55V21.55c0-3.61-2.74-6.55-6.11-6.55H20.09Z"/>
    <path class="cls-1" d="M52.15,121.03c-3.6,0-6.52-3.13-6.52-6.99V32.24c0-3.86,2.92-7,6.52-7s6.52,3.13,6.52,7v81.8c0,3.86-2.92,6.99-6.52,6.99Z"/>
    <path class="cls-1" d="M75.66,121.03c-3.6,0-6.52-3.13-6.52-6.99V32.24c0-3.86,2.92-7,6.52-7s6.52,3.13,6.52,7v81.8c0,3.86-2.92,6.99-6.52,6.99Z"/>
    <path class="cls-1" d="M29.27,121.03c-3.6,0-6.52-3.13-6.52-6.99V32.24c0-3.86,2.92-7,6.52-7s6.52,3.13,6.52,7v81.8c0,3.86-2.92,6.99-6.52,6.99Z"/>
  </g>
</svg>