<?xml version="1.0" encoding="UTF-8"?>
<svg preserveAspectRatio="xMidYMid slice" width="21px" height="30px" id="Layer_2" data-name="Layer 2" xmlns="http://www.w3.org/2000/svg" viewBox="0 0 104.31 143.28">
  <defs>
    <style>
      .cls-1 {
        fill: none;
      }

      .cls-2 {
        fill: #314022;
      }
    </style>
  </defs>
  <g id="Layer_1-2" data-name="Layer 1">
    <path class="cls-2" d="M95.53,127.79H8.78c-4.85,0-8.78-3.81-8.78-8.5s3.93-8.5,8.78-8.5h86.75c4.85,0,8.78,3.81,8.78,8.5s-3.93,8.5-8.78,8.5Z"/>
    <path class="cls-2" d="M95.53,80.14H8.78c-4.85,0-8.78-3.81-8.78-8.5s3.93-8.5,8.78-8.5h86.75c4.85,0,8.78,3.81,8.78,8.5s-3.93,8.5-8.78,8.5Z"/>
    <path class="cls-2" d="M95.53,32.5H8.78c-4.85,0-8.78-3.81-8.78-8.5s3.93-8.5,8.78-8.5h86.75c4.85,0,8.78,3.81,8.78,8.5s-3.93,8.5-8.78,8.5Z"/>
    <path class="cls-1" d="M95.53,17H8.78C3.93,17,0,13.19,0,8.5S3.93,0,8.78,0h86.75c4.85,0,8.78,3.81,8.78,8.5s-3.93,8.5-8.78,8.5Z"/>
    <path class="cls-1" d="M95.53,143.28H8.78c-4.85,0-8.78-3.81-8.78-8.5s3.93-8.5,8.78-8.5h86.75c4.85,0,8.78,3.81,8.78,8.5s-3.93,8.5-8.78,8.5Z"/>
  </g>
</svg>